<?xml version="1.0" standalone="no"?>
<!DOCTYPE svg PUBLIC "-//W3C//DTD SVG 20010904//EN"
 "http://www.w3.org/TR/2001/REC-SVG-20010904/DTD/svg10.dtd">
<svg version="1.0" xmlns="http://www.w3.org/2000/svg"
 width="200.000000pt" height="200.000000pt" viewBox="0 0 200.000000 200.000000"
 preserveAspectRatio="xMidYMid meet">
<metadata>
Created by potrace 1.14, written by Peter Selinger 2001-2017
</metadata>
<g transform="translate(0.000000,200.000000) scale(0.100000,-0.100000)"
fill="#000000" stroke="none">
<path d="M879 1885 c-2 -2 -24 -6 -47 -10 -160 -24 -354 -123 -483 -246 -431
-415 -380 -1106 108 -1455 81 -59 212 -119 315 -146 117 -31 347 -31 461 0
504 137 809 647 683 1143 -72 283 -252 502 -519 630 -127 60 -219 81 -378 85
-75 1 -138 1 -140 -1z m236 -70 c103 -12 171 -33 270 -82 259 -128 439 -373
483 -653 4 -25 7 -94 6 -155 -2 -367 -244 -695 -600 -814 -33 -11 -76 -23 -95
-26 -19 -3 -47 -8 -63 -11 -35 -8 -176 -7 -236 1 -80 10 -189 44 -268 84 -294
148 -477 432 -487 756 -6 191 40 355 144 513 188 283 506 429 846 387z"/>
<path d="M929 1496 c-2 -2 -38 -6 -80 -9 -41 -4 -98 -11 -125 -17 -27 -7 -58
-13 -68 -16 -111 -22 -210 -88 -250 -166 -49 -96 -38 -221 24 -288 34 -36 65
-38 111 -7 39 26 46 54 25 96 -9 16 -16 50 -16 75 0 89 75 136 240 151 36 4
71 8 78 10 17 6 16 1 -18 -49 -50 -73 -57 -159 -20 -244 18 -40 18 -48 4 -135
-8 -50 -17 -108 -20 -127 -10 -67 -15 -95 -25 -155 -26 -145 -36 -260 -27
-287 17 -47 71 -66 139 -47 47 12 65 49 73 149 4 41 8 89 11 105 3 17 7 48 10
70 16 112 37 242 41 260 4 15 14 21 42 22 85 5 175 70 209 151 33 80 15 201
-38 258 -21 23 -21 24 -3 25 10 1 21 1 24 1 139 -9 293 -12 309 -7 27 8 50 52
44 84 -7 49 -37 67 -143 86 -36 7 -544 17 -551 11z"/>
<path d="M1112 438 c-23 -23 -13 -66 25 -110 21 -24 39 -45 41 -48 8 -11 92
90 92 110 0 50 -47 79 -77 49 -8 -8 -13 -8 -17 0 -9 15 -49 14 -64 -1z"/>
</g>
</svg>
